<?xml version="1.0" encoding="UTF-8" standalone="no"?>
<!DOCTYPE svg PUBLIC "-//W3C//DTD SVG 1.1//EN" "http://www.w3.org/Graphics/SVG/1.1/DTD/svg11.dtd">
<svg width="100%" height="100%" viewBox="0 0 1000 1000" version="1.1" xmlns="http://www.w3.org/2000/svg" xmlns:xlink="http://www.w3.org/1999/xlink" xml:space="preserve" xmlns:serif="http://www.serif.com/" style="fill-rule:evenodd;clip-rule:evenodd;stroke-linejoin:round;stroke-miterlimit:2;">
    <path d="M500,0C775.958,0 1000,224.042 1000,500C1000,775.958 775.958,1000 500,1000C224.042,1000 0,775.958 0,500C0,224.042 224.042,0 500,0ZM500,38.394C754.767,38.394 961.606,245.233 961.606,500C961.606,754.767 754.767,961.606 500,961.606C245.233,961.606 38.394,754.767 38.394,500C38.394,245.233 245.233,38.394 500,38.394ZM248.691,751.308C244.171,746.788 241.632,740.658 241.632,734.266C241.632,727.873 244.171,721.743 248.691,717.223C302.606,663.308 465.914,500 465.914,500C465.914,500 302.606,336.692 248.691,282.777C244.171,278.257 241.632,272.127 241.632,265.734C241.632,259.342 244.171,253.212 248.691,248.692C248.691,248.692 248.692,248.691 248.692,248.691C253.212,244.171 259.342,241.632 265.734,241.632C272.127,241.632 278.257,244.171 282.777,248.691C336.692,302.606 500,465.914 500,465.914C500,465.914 663.308,302.606 717.223,248.691C721.743,244.171 727.873,241.632 734.266,241.632C740.658,241.632 746.788,244.171 751.308,248.691C751.308,248.691 751.309,248.692 751.309,248.692C755.829,253.212 758.368,259.342 758.368,265.734C758.368,272.127 755.829,278.257 751.309,282.777C697.394,336.692 534.086,500 534.086,500C534.086,500 697.394,663.308 751.309,717.223C755.829,721.743 758.368,727.873 758.368,734.266C758.368,740.658 755.829,746.788 751.309,751.308C751.309,751.308 751.308,751.309 751.308,751.309C746.788,755.829 740.658,758.368 734.266,758.368C727.873,758.368 721.743,755.829 717.223,751.309C663.308,697.394 500,534.086 500,534.086C500,534.086 336.692,697.394 282.777,751.309C278.257,755.829 272.127,758.368 265.734,758.368C259.342,758.368 253.212,755.829 248.692,751.309C248.692,751.309 248.691,751.308 248.691,751.308Z" style="fill:white;"/>
</svg>
